<?xml version="1.0" encoding="utf-8"?>
<!-- Generator: Adobe Illustrator 16.0.0, SVG Export Plug-In . SVG Version: 6.00 Build 0)  -->
<!DOCTYPE svg PUBLIC "-//W3C//DTD SVG 1.1//EN" "http://www.w3.org/Graphics/SVG/1.1/DTD/svg11.dtd">
<svg version="1.1" id="Layer_1" xmlns="http://www.w3.org/2000/svg" xmlns:xlink="http://www.w3.org/1999/xlink" x="0px" y="0px"
	 width="216px" height="53px" viewBox="0 0 216 53" enable-background="new 0 0 216 53" xml:space="preserve">
<g>
	<g>
		<g>
			<polygon fill="#FFFFFF" points="36,26.517 34,26.517 34,19.517 24,19.517 24,26.517 22,26.517 22,17.517 36,17.517 			"/>
		</g>
	</g>
	<g>
		<polygon fill="#FFFFFF" points="44,45.517 10,45.517 10,29.517 60,29.517 60,37.517 58,37.517 58,31.517 12,31.517 12,43.517 
			44,43.517 		"/>
	</g>
	<g>
		<rect x="26" y="9.517" fill="#FFFFFF" width="2" height="9"/>
	</g>
	<g>
		<rect x="30" y="13.517" fill="#FFFFFF" width="2" height="5"/>
	</g>
	<g>
		<g>
			<path fill="#FFFFFF" d="M41,31.517H16v-6h25V31.517z M18,29.517h21v-2H18V29.517z"/>
		</g>
	</g>
	<g>
		<rect x="26" y="21.517" fill="#FFFFFF" width="2" height="2"/>
	</g>
	<g>
		<rect x="30" y="21.517" fill="#FFFFFF" width="2" height="2"/>
	</g>
	<g>
		<rect x="14" y="39.517" fill="#FFFFFF" width="6" height="2"/>
	</g>
	<g>
		<rect x="22" y="39.517" fill="#FFFFFF" width="6" height="2"/>
	</g>
	<g>
		<rect x="30" y="39.517" fill="#FFFFFF" width="6" height="2"/>
	</g>
	<g>
		<rect x="38" y="39.517" fill="#FFFFFF" width="6" height="2"/>
	</g>
	<g>
		<path fill="#FFFFFF" d="M60,45.517H46v-6h14V45.517z M48,43.517h10v-2H48V43.517z"/>
	</g>
</g>
<text transform="matrix(1 0 0 1 73.667 32.4834)" fill="#FFFFFF" font-family="'UTMNeoSansIntelBold'" font-size="12" letter-spacing="1">TRẢI NGHIỆM NGAY</text>
</svg>
